<?xml version="1.0" standalone="no"?>
<!-- Generator: Adobe Fireworks 10, Export SVG Extension by Aaron Beall (http://fireworks.abeall.com) . Version: 0.6.0  -->
<!DOCTYPE svg PUBLIC "-//W3C//DTD SVG 1.1//EN" "http://www.w3.org/Graphics/SVG/1.1/DTD/svg11.dtd">
<svg id="close-btn" viewBox="0 0 30 30" style="background-color:#ffffff00" version="1.1"
	xmlns="http://www.w3.org/2000/svg" xmlns:xlink="http://www.w3.org/1999/xlink" xml:space="preserve"
	x="0px" y="0px" width="30px" height="30px"
>
	<g id="Background">
		<image visibility="hidden" x="0" y="0" width="30" height="30" xlink:href="close-btn.svg.images/image1.png"/>
		<g id="close-btn">
			<path d="M 15 0 C 6.715 0 0 6.716 0 15 C 0 23.285 6.715 30 15 30 C 23.284 30 30 23.285 30 15 C 30 6.716 23.284 0 15 0 L 15 0 L 15 0 ZM 15 2 C 22.168 2 28 7.832 28 15 C 28 22.168 22.168 28 15 28 C 7.832 28 2 22.168 2 15 C 2 7.832 7.832 2 15 2 " fill="#35731e"/>
			<path d="M 9 9 L 21 21 " stroke="#35731e" stroke-width="3" fill="none"/>
			<path d="M 21 9 L 9 21 " stroke="#35731e" stroke-width="3" fill="none"/>
		</g>
	</g>
	<g id="Layer%201">
	</g>
</svg>