<?xml version="1.0" standalone="no"?>
<!-- Generator: Adobe Fireworks 10, Export SVG Extension by Aaron Beall (http://fireworks.abeall.com) . Version: 0.6.0  -->
<!DOCTYPE svg PUBLIC "-//W3C//DTD SVG 1.1//EN" "http://www.w3.org/Graphics/SVG/1.1/DTD/svg11.dtd">
<svg id="nav-icon" viewBox="0 0 30 24" style="background-color:#ffffff00" version="1.1"
	xmlns="http://www.w3.org/2000/svg" xmlns:xlink="http://www.w3.org/1999/xlink" xml:space="preserve"
	x="0px" y="0px" width="30px" height="24px"
>
	<g id="Background">
		<image visibility="hidden" x="0" y="0" width="30" height="24" xlink:href="nav-icon.svg.images/image1.png"/>
		<g id="nav-icon">
			<path d="M 0 2.5 C 0 1.1193 1.1193 0 2.5 0 C 3.8807 0 5 1.1193 5 2.5 C 5 3.8807 3.8807 5 2.5 5 C 1.1193 5 0 3.8807 0 2.5 Z" fill="#35731e"/>
			<path d="M 0 12 C 0 10.6193 1.1193 9.5 2.5 9.5 C 3.8807 9.5 5 10.6193 5 12 C 5 13.3807 3.8807 14.5 2.5 14.5 C 1.1193 14.5 0 13.3807 0 12 Z" fill="#35731e"/>
			<path d="M 0 21.5 C 0 20.1193 1.1193 19 2.5 19 C 3.8807 19 5 20.1193 5 21.5 C 5 22.8807 3.8807 24 2.5 24 C 1.1193 24 0 22.8807 0 21.5 Z" fill="#35731e"/>
			<rect x="7" y="0" width="20" height="5" fill="#35731e"/>
			<rect x="7" y="9" width="23" height="6" fill="#35731e"/>
			<rect x="7" y="19" width="17" height="5" fill="#35731e"/>
		</g>
	</g>
	<g id="Layer%201">
	</g>
</svg>